<svg width="125" height="145" viewBox="0 0 125 145" fill="none" xmlns="http://www.w3.org/2000/svg">
<path d="M33.4079 38.2969C36.0278 38.3135 36.7928 37.3374 36.8118 34.3296L36.8278 31.8082C36.8469 28.8004 36.0943 27.8146 33.4744 27.798L31.6852 27.7867L31.6187 38.2856L33.4079 38.2969ZM31.5123 55.0839L31.3659 78.1896L14.1211 78.0803L14.5469 10.8792L34.755 11.0072C48.2058 11.0924 54.3632 18.8336 54.2723 33.1835C54.1814 47.5334 47.9264 55.1879 34.4756 55.1026L31.5123 55.0839Z" fill="black"/>
<path d="M96.0563 38.6937C98.6767 38.7103 99.4418 37.7341 99.4609 34.7263L99.4768 32.2049C99.4959 29.1971 98.7032 28.2111 96.1228 28.1948L94.3252 28.1834L94.2587 38.6823L96.0563 38.6937ZM94.1523 55.4806L94.0059 78.5863L76.7657 78.4771L77.1914 11.2759L97.4036 11.4039C110.849 11.4891 117.008 19.2303 116.917 33.5802C116.826 47.9301 110.57 55.5846 97.1242 55.4994L94.1523 55.4806Z" fill="black"/>
<path d="M76.3993 93.2826C76.3101 99.4015 73.884 105.24 69.6452 109.535C65.4064 113.831 59.6952 116.24 53.7456 116.241C47.7909 116.173 42.1025 113.696 37.9115 109.346C33.7206 104.996 31.3643 99.1225 31.3525 92.9972L14.0269 92.8875C13.958 103.762 18.092 114.219 25.5194 121.956C32.9468 129.693 43.0593 134.077 53.6322 134.144C64.2051 134.211 74.3723 129.955 81.8972 122.313C89.422 114.671 93.6882 104.268 93.7571 93.3926L76.3993 93.2826Z" fill="black"/>
</svg>
