<svg width="19" height="19" viewBox="0 0 19 19" fill="none" xmlns="http://www.w3.org/2000/svg">
<path d="M9.37198 0.287109C6.89288 0.287109 6.50862 0.287109 5.51698 0.287109C4.73702 0.295464 3.96474 0.442834 3.2362 0.722255C2.61185 0.959619 2.04547 1.3284 1.57521 1.80378C1.09969 2.27417 0.731737 2.84251 0.496807 3.46955C0.218194 4.20021 0.0712879 4.97475 0.0629578 5.75697C0.0629578 6.76392 0.000976562 7.0747 0.000976562 9.63558C0.000976562 12.1965 0.000980344 12.4948 0.0629578 13.5017C0.0711717 14.2799 0.218106 15.0504 0.496807 15.7767C0.72832 16.4091 1.0966 16.9822 1.57521 17.4549C2.04875 17.9262 2.61421 18.2944 3.2362 18.5365C3.96406 18.8029 4.73003 18.9499 5.50457 18.9716C6.50861 18.9716 6.8309 18.9716 9.37198 18.9716C11.9131 18.9716 12.2353 18.9716 13.2394 18.9716C14.0139 18.9499 14.7799 18.8029 15.5077 18.5365C16.1297 18.2944 16.6952 17.9262 17.1687 17.4549C17.6442 16.9845 18.0122 16.4162 18.2471 15.7892C18.5137 15.0551 18.6602 14.2827 18.681 13.5017C18.681 12.5072 18.681 12.184 18.681 9.63558C18.681 7.08713 18.681 6.76392 18.681 5.75697C18.6593 4.98019 18.5128 4.21197 18.2471 3.482C18.0156 2.84959 17.6473 2.27649 17.1687 1.80378C16.6952 1.33246 16.1297 0.964271 15.5077 0.722255C14.7799 0.455785 14.0139 0.308817 13.2394 0.287109C12.2353 0.287109 11.9131 0.287109 9.37198 0.287109ZM9.37198 1.97784C11.8511 1.97784 12.1734 1.97784 13.165 1.97784C13.7575 1.98622 14.3443 2.09545 14.9004 2.301C15.3043 2.45509 15.6716 2.69222 15.9788 2.99715C16.2867 3.302 16.5238 3.6713 16.6729 4.07868C16.879 4.64031 16.988 5.23315 16.9952 5.83156C16.9952 6.81364 17.0572 7.07469 17.0572 9.62313C17.0572 12.1716 17.0572 12.4326 16.9952 13.3526C16.988 13.951 16.879 14.5438 16.6729 15.1054C16.5267 15.5107 16.2892 15.8765 15.9788 16.1745C15.6755 16.4873 15.3073 16.7292 14.9004 16.8831C14.3443 17.0887 13.7575 17.198 13.165 17.2064C12.1734 17.2064 11.9254 17.2064 9.37198 17.2064C6.81851 17.2064 6.5706 17.2064 5.65333 17.2064C5.06051 17.201 4.47318 17.0916 3.91795 16.8831C3.50803 16.7351 3.13861 16.4923 2.83955 16.1745C2.52534 15.8773 2.28357 15.5115 2.133 15.1054C1.93327 14.5421 1.82448 13.9503 1.81073 13.3526C1.81073 12.3705 1.81073 12.1094 1.81073 9.62313C1.81073 7.13684 1.81073 6.81364 1.81073 5.83156C1.82448 5.23381 1.93327 4.64204 2.133 4.07868C2.29129 3.67299 2.53189 3.3047 2.83955 2.99715C3.14246 2.68698 3.511 2.44906 3.91795 2.301C4.47318 2.09257 5.06051 1.98325 5.65333 1.97784C6.63258 1.97784 6.89288 1.97784 9.37198 1.97784Z" fill="black"/>
<path d="M9.37279 12.8057C8.75499 12.8057 8.15105 12.622 7.63737 12.2777C7.12369 11.9335 6.72331 11.4443 6.48689 10.8718C6.25047 10.2994 6.18861 9.66953 6.30914 9.06184C6.42966 8.45415 6.72716 7.89595 7.16401 7.45783C7.60086 7.01971 8.15745 6.72131 8.76338 6.60044C9.36931 6.47956 9.99738 6.54164 10.5682 6.77874C11.1389 7.01585 11.6268 7.41733 11.97 7.93251C12.3132 8.44768 12.4964 9.05334 12.4964 9.67294C12.4964 10.5038 12.1673 11.3006 11.5815 11.8881C10.9957 12.4756 10.2012 12.8057 9.37279 12.8057ZM9.37279 4.84961C8.42235 4.85942 7.49599 5.15069 6.71013 5.6869C5.92427 6.2231 5.31395 6.9803 4.95586 7.86331C4.59777 8.74632 4.5079 9.71575 4.69751 10.6498C4.88712 11.5839 5.34778 12.441 6.02159 13.1133C6.6954 13.7856 7.5523 14.2433 8.48464 14.4287C9.41698 14.6141 10.3831 14.5189 11.2618 14.1553C12.1404 13.7917 12.8923 13.1757 13.4229 12.3849C13.9535 11.594 14.2393 10.6635 14.2442 9.71027C14.2442 9.0758 14.1194 8.44758 13.8769 7.86156C13.6345 7.27555 13.2791 6.74325 12.8312 6.29519C12.3833 5.84713 11.8516 5.49213 11.2667 5.25046C10.6817 5.00879 10.055 4.88523 9.42236 4.88686" fill="black"/>
<path d="M15.483 4.66268C15.483 4.88635 15.4169 5.10498 15.2929 5.29096C15.169 5.47694 14.9928 5.62187 14.7867 5.70746C14.5806 5.79306 14.3538 5.8155 14.135 5.77186C13.9162 5.72822 13.7152 5.62054 13.5574 5.46238C13.3997 5.30422 13.2922 5.10271 13.2487 4.88333C13.2052 4.66396 13.2275 4.43652 13.3129 4.22987C13.3983 4.02322 13.5429 3.84661 13.7284 3.72235C13.9139 3.59808 14.1319 3.53181 14.355 3.53181C14.5036 3.53014 14.6511 3.55824 14.7887 3.61449C14.9263 3.67073 15.0513 3.75391 15.1564 3.85926C15.2614 3.96461 15.3445 4.09001 15.4006 4.22797C15.4567 4.36593 15.4847 4.51371 15.483 4.66268Z" fill="black"/>
</svg>
