<svg width="19" height="18" viewBox="0 0 19 18" fill="none" xmlns="http://www.w3.org/2000/svg">
<path d="M18.1221 9.05139C18.1213 7.32098 17.6278 5.62701 16.6999 4.17003C15.7721 2.71305 14.4488 1.5541 12.8866 0.830293C11.3245 0.106485 9.58899 -0.151872 7.8855 0.0858809C6.18201 0.323633 4.58189 1.04751 3.27455 2.1718C1.96721 3.29609 1.00739 4.77374 0.508718 6.42981C0.0100466 8.08588 -0.00660053 9.85108 0.460748 11.5164C0.928096 13.1817 1.85987 14.6773 3.14577 15.8264C4.43167 16.9754 6.01785 17.7298 7.71655 18V11.6778H5.43703V9.05139H7.71655V7.03111C7.661 6.56177 7.70958 6.08586 7.85879 5.63767C8.008 5.18948 8.25413 4.78017 8.57946 4.4392C8.90478 4.09823 9.30121 3.83407 9.74019 3.66577C10.1792 3.49748 10.6498 3.42924 11.1181 3.46594C11.7909 3.47555 12.462 3.53516 13.126 3.64423V5.86652H11.9449C11.751 5.84273 11.5542 5.86279 11.369 5.92534C11.1839 5.98788 11.0149 6.09133 10.8745 6.22802C10.7341 6.36471 10.6259 6.53119 10.5577 6.71538C10.4895 6.89956 10.4631 7.09681 10.4803 7.2926V9.05139H12.9843L12.5827 11.6778H10.5276V18C12.6453 17.6631 14.574 16.5765 15.9663 14.936C17.3586 13.2954 18.1231 11.2087 18.1221 9.05139Z" fill="black"/>
</svg>
