<?xml version="1.0" encoding="UTF-8" standalone="no"?>
<svg
   xmlns:dc="http://purl.org/dc/elements/1.1/"
   xmlns:cc="http://creativecommons.org/ns#"
   xmlns:rdf="http://www.w3.org/1999/02/22-rdf-syntax-ns#"
   xmlns:svg="http://www.w3.org/2000/svg"
   xmlns="http://www.w3.org/2000/svg"
   viewBox="0 0 1889.76 1056"
   height="1056"
   width="1889.76"
   xml:space="preserve"
   id="svg2"
   version="1.1"><metadata
     id="metadata8"><rdf:RDF><cc:Work
         rdf:about=""><dc:format>image/svg+xml</dc:format><dc:type
           rdf:resource="http://purl.org/dc/dcmitype/StillImage" /></cc:Work></rdf:RDF></metadata><defs
     id="defs6"><clipPath
       id="clipPath18"
       clipPathUnits="userSpaceOnUse"><path
         id="path16"
         d="M 0,792 H 1417.323 V 0 H 0 Z" /></clipPath></defs><g
     transform="matrix(1.3333333,0,0,-1.3333333,0,1056)"
     id="g10"><g
       id="g12"><g
         clip-path="url(#clipPath18)"
         id="g14"><g
           transform="translate(921.2745,306.7146)"
           id="g20"><path
             id="path22"
             style="fill:#000000;fill-opacity:1;fill-rule:nonzero;stroke:none"
             d="m 0,0 c -0.659,-52.634 -43.087,-95.102 -95.355,-95.102 -52.268,0 -94.691,42.469 -95.342,95.102 h -73.276 c -0.007,-93.127 75.481,-168.623 168.608,-168.623 93.126,0 168.625,75.495 168.632,168.623 z" /></g><g
           transform="translate(1207.2129,653.9078)"
           id="g24"><path
             id="path26"
             style="fill:#000000;fill-opacity:1;fill-rule:nonzero;stroke:none"
             d="m 0,0 -57.127,-285.641 h 77.059 l 8.337,44.928 h 50.279 l 8.336,-44.928 h 77.06 L 106.817,0 Z m 53.26,-96.702 h 0.596 L 65.16,-166.325 H 41.657 Z" /></g><g
           transform="translate(142.8687,653.9078)"
           id="g28"><path
             id="path30"
             style="fill:#000000;fill-opacity:1;fill-rule:nonzero;stroke:none"
             d="M 0,0 V -96.702 H -22.317 V 0 h -74.385 v -285.641 h 74.385 v 96.702 H 0 v -96.702 H 74.385 L 74.385,0 Z" /></g><g
           transform="translate(378.0518,653.9078)"
           id="g32"><path
             id="path34"
             style="fill:#000000;fill-opacity:1;fill-rule:nonzero;stroke:none"
             d="m 0,0 -57.127,-285.641 h 77.063 l 8.333,44.928 h 50.283 l 8.332,-44.928 h 77.063 L 106.817,0 Z m 53.26,-96.702 h 0.596 l 11.307,-69.623 H 41.657 Z" /></g><g
           transform="translate(730.3244,466.4552)"
           id="g36"><path
             id="path38"
             style="fill:#000000;fill-opacity:1;fill-rule:nonzero;stroke:none"
             d="m 0,0 v -98.188 h -74.385 v 285.641 h 87.181 c 58.019,0 84.799,-32.731 84.799,-93.728 C 97.595,32.728 70.815,0 12.796,0 Z m 7.737,71.411 c 11.306,0 14.58,4.163 14.58,16.959 v 10.71 c 0,12.796 -3.274,16.962 -14.58,16.962 H 0 V 71.411 Z" /></g><g
           transform="translate(995.0489,466.4552)"
           id="g40"><path
             id="path42"
             style="fill:#000000;fill-opacity:1;fill-rule:nonzero;stroke:none"
             d="m 0,0 v -98.188 h -74.385 v 285.641 h 87.181 c 58.019,0 84.799,-32.731 84.799,-93.728 C 97.595,32.728 70.815,0 12.796,0 Z m 7.737,71.411 c 11.306,0 14.58,4.163 14.58,16.959 v 10.71 c 0,12.796 -3.274,16.962 -14.58,16.962 H 0 V 71.411 Z" /></g></g></g></g></svg>